<svg width="599" height="352" viewBox="0 0 599 352" fill="none" xmlns="http://www.w3.org/2000/svg">
<path d="M305.753 349.21C306.966 342.846 310.732 337.011 316.02 333.286" stroke="#04D361" stroke-width="0.779" stroke-miterlimit="10"/>
<path d="M305.589 351C305.817 345.686 307.868 332.893 312.719 324.885" stroke="#04D361" stroke-width="0.779" stroke-miterlimit="10"/>
<path d="M305.662 350.343C306.501 340.865 306.428 330.391 304.95 320.986" stroke="#04D361" stroke-width="0.779" stroke-miterlimit="10"/>
<path d="M321.369 326.554C322.206 326.391 323.062 326.497 323.976 326.706C324.433 326.811 324.89 326.937 325.366 327.064C325.836 327.191 326.322 327.317 326.813 327.412L326.814 327.413C327.636 327.57 328.466 327.635 329.276 327.681C330.096 327.727 330.881 327.754 331.665 327.83C333.24 327.982 334.765 328.353 335.878 329.286L335.88 329.287C337.004 330.222 337.559 331.812 337.02 333.019L337.019 333.02C336.692 333.756 336.049 334.261 335.214 334.583C334.376 334.906 333.384 335.027 332.45 335.014C330.804 334.991 329.17 334.729 327.511 334.412C325.865 334.097 324.174 333.724 322.477 333.502C320.835 333.288 319.126 333.221 317.453 333.467H317.452C317.091 333.52 316.704 333.645 316.33 333.784C315.959 333.923 315.558 334.093 315.195 334.238C314.96 334.332 314.734 334.416 314.521 334.487C315.391 333.309 316.085 332.059 316.792 330.812L316.794 330.81C317.915 328.811 319.359 326.945 321.369 326.554Z" fill="#04D361" stroke="#04D361"/>
<path d="M322.94 309.999C324.384 309.595 325.886 309.611 327.457 309.751C328.994 309.888 330.668 310.154 332.274 310.2H332.276C333.023 310.219 333.792 310.191 334.51 310.187C335.242 310.182 335.95 310.201 336.645 310.305C338.031 310.513 339.352 311.134 340 312.229L340.001 312.229C340.502 313.069 340.528 314.097 340.185 315.086C339.841 316.077 339.138 316.983 338.257 317.541C336.447 318.688 334.122 318.769 331.841 318.517C330.677 318.388 329.593 318.195 328.397 318.043C327.379 317.914 326.341 317.824 325.287 317.867L324.835 317.895C321.76 318.133 318.905 319.588 316.548 321.472C315.594 322.231 314.745 323.229 313.937 324.143C313.325 324.835 312.732 325.481 312.109 326.004C312.139 325.825 312.185 325.616 312.249 325.381C312.468 324.575 312.856 323.546 313.3 322.484C314.189 320.359 315.261 318.193 315.572 317.514C317.131 314.129 319.537 310.952 322.94 309.999Z" fill="#04D361" stroke="#04D361"/>
<path d="M294.57 287.109C295.955 286.86 297.429 287.442 298.648 288.367L298.649 288.368C300.265 289.587 301.472 291.335 302.059 293.28L302.168 293.671C302.49 294.942 302.554 296.265 302.616 297.647C302.677 299.011 302.737 300.436 303.079 301.821C303.53 303.665 304.459 305.346 305.307 306.956C306.168 308.589 306.952 310.159 307.229 311.871V311.872C307.522 313.665 307.224 315.507 306.663 317.282C306.498 317.795 306.21 318.85 305.824 319.831C305.632 320.319 305.427 320.759 305.218 321.081C305.113 321.241 305.018 321.358 304.934 321.434C304.851 321.511 304.803 321.525 304.793 321.527H304.792C304.688 321.547 304.477 321.517 304.141 321.349C303.822 321.19 303.464 320.945 303.101 320.659C302.379 320.088 301.7 319.402 301.372 319.06C300.367 318.001 299.568 316.754 299.074 315.392L299.073 315.39L298.97 315.093C298.471 313.605 298.282 312.024 298.096 310.381C297.899 308.649 297.702 306.845 297.106 305.134L296.941 304.689C296.073 302.483 294.608 300.544 293.398 298.656C292.084 296.604 290.971 294.409 290.988 292.108C291.005 289.873 292.381 287.627 294.375 287.15L294.57 287.109Z" fill="#04D361" stroke="#04D361"/>
<path d="M305.57 349.448C304.95 341.075 302.798 331.615 298.121 324.648" stroke="#04D361" stroke-width="0.779" stroke-miterlimit="10"/>
<path d="M277.636 307.596C280.348 307.419 283.087 307.906 285.762 308.63C288.34 309.328 290.853 310.263 292.829 311.926C294.783 313.577 296.118 315.883 296.993 318.35L296.994 318.351C297.663 320.219 298.076 322.176 298.421 324.149V324.151C298.447 324.294 298.498 324.496 298.538 324.669C298.581 324.859 298.621 325.052 298.642 325.236C298.664 325.424 298.662 325.573 298.64 325.681C298.619 325.783 298.59 325.809 298.581 325.816C298.576 325.819 298.539 325.847 298.412 325.828C298.283 325.808 298.116 325.748 297.925 325.65C297.64 325.503 297.358 325.302 297.157 325.14L296.985 324.996C296.649 324.688 296.352 324.332 296.054 323.946C295.766 323.573 295.452 323.135 295.135 322.744H295.134C292.423 319.41 288.14 317.806 284.003 317.213C281.933 316.917 279.85 316.838 277.785 316.805C275.71 316.772 273.665 316.784 271.623 316.67L271.619 316.669C270.682 316.623 269.837 316.521 269.212 316.077C268.397 315.493 268.058 314.299 268.307 313.209C268.525 312.266 269.121 311.417 269.88 310.693L270.215 310.39C272.238 308.652 274.925 307.774 277.636 307.596Z" fill="#04D361" stroke="#04D361"/>
<path d="M305.397 350.343C305.033 343.038 301.75 335.916 296.443 330.894" stroke="#04D361" stroke-width="0.779" stroke-miterlimit="10"/>
<path d="M281.83 324.152C283.719 323.786 285.692 324.311 287.7 324.874C289.75 325.449 291.828 326.084 293.663 327.061V327.062C293.801 327.135 293.927 327.203 294.052 327.277L294.063 327.284C294.861 327.735 295.393 328.52 295.979 329.414C296.047 329.517 296.15 329.726 296.29 330.027C296.422 330.311 296.58 330.663 296.74 330.996C296.774 331.067 296.81 331.137 296.846 331.208C294.739 330.63 292.452 330.561 290.349 330.568L289.253 330.576C286.003 330.604 282.752 331.208 279.713 332.381L279.711 332.382C277.893 333.092 276.265 333.923 274.503 334.109L274.148 334.138C273.649 334.162 273.118 334.091 272.689 333.909C272.317 333.751 272.055 333.527 271.921 333.236L271.871 333.108C271.696 332.533 272.001 331.852 272.514 331.166L272.516 331.164C273.534 329.793 274.847 328.669 276.204 327.513C277.863 326.103 279.508 324.743 281.44 324.241L281.83 324.152Z" fill="#04D361" stroke="#04D361"/>
<path d="M534.203 309.279C536.311 308.265 538.757 309.247 540.846 310.593C541.869 311.252 542.969 312.029 544.117 312.615C545.277 313.207 546.54 313.635 547.937 313.585C549.044 313.546 550.111 313.203 551.102 312.88C552.117 312.549 553.055 312.236 554.007 312.168L554.008 312.169C556.619 311.992 558.888 313.664 561.054 315.418L561.055 315.419C562.627 316.687 564.11 317.954 564.598 319.729C565.189 321.872 564.098 324.45 562.234 326.005L562.233 326.006C560.378 327.563 557.912 328.209 555.513 328.263H555.512C554.434 328.289 553.149 328.237 551.978 328.401C550.86 328.558 549.753 328.919 548.879 329.782L548.707 329.962C547.831 330.932 547.529 332.152 547.308 333.294C547.08 334.477 546.936 335.56 546.453 336.507C545.479 338.399 543.19 339.421 541.046 339.412C538.888 339.403 536.854 338.579 534.765 337.74C532.835 336.965 530.738 336.155 528.504 336.144L528.055 336.152C525.405 336.267 522.882 337.568 520.544 338.547H520.543C519.507 338.983 518.075 339.572 516.712 339.797C515.327 340.026 514.21 339.851 513.576 339.016L513.574 339.014C513.294 338.649 513.143 338.139 513.113 337.497C513.083 336.857 513.176 336.127 513.344 335.367C513.679 333.846 514.292 332.294 514.701 331.246C515.754 328.559 517.484 326.051 519.868 324.596L520.1 324.458C521.267 323.793 522.551 323.382 523.885 322.858C525.19 322.346 526.512 321.734 527.582 320.672V320.671C529.301 318.959 529.94 316.488 530.639 314.403C531.359 312.259 532.383 310.158 534.203 309.279Z" fill="#04D361" stroke="#04D361"/>
<path d="M513.615 339.071C525.752 328.635 539.913 321.722 555.196 318.782" stroke="white" stroke-width="0.7047" stroke-miterlimit="10" stroke-linecap="round" stroke-linejoin="round"/>
<path d="M525.615 323.019C525.898 319.577 525.251 315.988 526.381 312.729C528.396 306.921 535.381 303.89 537.132 298C539.229 290.96 532.828 283.774 533.941 276.515C534.406 273.456 536.166 270.762 537.26 267.868C538.354 264.973 538.637 261.348 536.512 259.093C534.287 256.737 530.248 257.011 527.603 258.892C524.959 260.773 523.436 263.823 522.196 266.827C520.965 269.831 519.88 272.972 517.792 275.465C513.989 280.003 507.15 281.993 505.071 287.536C502.956 293.179 506.959 299.151 507.67 305.132C508.208 309.661 506.831 314.171 505.6 318.572C504.378 322.974 503.293 327.63 504.415 332.05C505.91 337.939 511.208 341.692 516.287 337.912C521.311 334.196 525.096 329.493 525.615 323.019Z" fill="#04D361"/>
<path d="M513.068 339.355C511.053 318.335 515.667 295.535 526.445 277.382" stroke="white" stroke-width="1.1364" stroke-miterlimit="10" stroke-linecap="round" stroke-linejoin="round"/>
<path d="M499.646 331.429C497.43 328.297 496.162 324.38 493.153 321.997C489.706 319.257 484.928 319.23 480.551 318.874C476.165 318.518 471.223 317.276 469.19 313.368C468.077 311.222 468.077 308.675 467.302 306.392C466.445 303.881 464.694 301.799 463.463 299.452C462.241 297.105 461.594 294.12 463.016 291.882C464.457 289.618 467.612 288.951 470.193 289.682C472.773 290.412 474.889 292.229 476.822 294.092C478.755 295.955 480.643 297.946 483.023 299.169C486.971 301.187 491.658 300.813 496.089 300.621C500.521 300.438 505.354 300.621 508.783 303.452C511.6 305.78 512.886 309.442 514.035 312.92C515.694 317.897 517.39 322.855 519.004 327.85C519.998 330.918 521.895 335.62 518.704 338.031C513.077 342.277 502.892 336.004 499.646 331.429Z" fill="#04D361"/>
<path d="M516.925 338.214C509.886 321.851 494.986 307.917 477.15 301.771" stroke="white" stroke-width="0.8174" stroke-miterlimit="10" stroke-linecap="round" stroke-linejoin="round"/>
<path d="M111.359 337.462C113.374 334.458 114.541 330.605 117.249 328.404C120.359 325.893 124.635 326.222 128.574 326.176C132.505 326.14 136.945 325.254 138.805 321.455C139.827 319.373 139.836 316.798 140.556 314.543C141.34 312.069 142.927 310.096 144.049 307.813C145.161 305.531 145.763 302.563 144.514 300.198C143.237 297.806 140.419 296.902 138.103 297.45C135.787 297.998 133.872 299.678 132.131 301.413C130.389 303.148 128.684 305.019 126.532 306.079C122.976 307.832 118.781 307.101 114.805 306.581C110.83 306.069 106.498 305.905 103.407 308.507C100.863 310.653 99.6868 314.26 98.6199 317.684C97.0971 322.588 95.5378 327.473 94.0515 332.394C93.1396 335.426 91.398 340.028 94.243 342.703C99.2308 347.433 108.413 341.845 111.359 337.462Z" fill="#04D361"/>
<path d="M95.8204 343.05C102.258 327.034 115.717 314.059 131.748 309.156" stroke="white" stroke-width="0.7781" stroke-miterlimit="10" stroke-linecap="round" stroke-linejoin="round"/>
<path d="M86.9937 329.052C86.7749 325.884 87.2855 322.588 86.3828 319.584C84.7688 314.242 79.17 311.457 77.7657 306.042C76.0879 299.568 81.2125 292.957 80.328 286.273C79.9542 283.461 78.5408 280.987 77.6654 278.32C76.79 275.654 76.5621 272.321 78.2672 270.248C80.0545 268.075 83.2825 268.331 85.4071 270.066C87.5226 271.801 88.7445 274.604 89.7384 277.361C90.7232 280.119 91.5986 283.014 93.2673 285.306C96.3129 289.478 101.793 291.305 103.453 296.409C105.149 301.604 101.939 307.092 101.374 312.598C100.945 316.771 102.048 320.917 103.033 324.962C104.018 329.007 104.884 333.289 103.982 337.362C102.787 342.776 98.5378 346.228 94.4709 342.758C90.4496 339.334 87.4132 335.006 86.9937 329.052Z" fill="#04D361"/>
<path d="M97.0423 344.073C98.6563 324.743 94.9542 303.769 86.328 287.068" stroke="white" stroke-width="0.9754" stroke-miterlimit="10" stroke-linecap="round" stroke-linejoin="round"/>
<path d="M64.1375 303.134C66.6177 301.475 69.5592 300.325 72.1755 301.878C73.3056 302.553 74.2066 303.636 74.9431 304.94C75.6791 306.243 76.235 307.738 76.6863 309.203V309.204C77.5896 312.105 78.395 315.419 80.4695 317.811V317.81C81.7578 319.302 83.3401 320.222 84.9275 321.015C86.4373 321.769 87.9145 322.395 89.2742 323.291L89.5447 323.473C92.4521 325.486 94.6267 328.84 96.0281 332.442L96.2976 333.166C96.8106 334.606 97.5916 336.764 98.0359 338.867C98.2579 339.917 98.3917 340.934 98.3708 341.825C98.3499 342.722 98.1736 343.441 97.8259 343.944L97.824 343.946C97.0643 345.054 95.7107 345.199 94.0271 344.783C92.367 344.372 90.6135 343.461 89.3533 342.792H89.3523C87.9226 342.033 86.4313 341.166 84.9402 340.46C83.4397 339.75 81.8852 339.175 80.2751 338.993C77.3915 338.667 74.7014 339.657 72.24 340.622C69.7472 341.598 67.3176 342.561 64.7029 342.396C62.191 342.237 59.433 340.771 58.1091 338.19L57.9851 337.937C57.3619 336.585 57.1545 335.062 56.8542 333.468C56.5609 331.912 56.1782 330.3 55.1433 328.981C54.0826 327.624 52.6904 326.998 51.2498 326.679C49.8383 326.366 48.2974 326.336 46.99 326.217H46.989C44.0938 325.96 41.0756 324.889 38.7605 322.606V322.605L38.5447 322.387C36.4156 320.165 35.106 316.795 35.6287 313.986L35.6873 313.708C36.256 311.286 38.0475 309.666 39.8923 308.094V308.093C42.4674 305.894 45.1705 303.798 48.3337 304.246H48.3347C49.4958 304.408 50.646 304.906 51.8767 305.431C53.0788 305.944 54.3603 306.485 55.6833 306.622C57.3555 306.795 58.8626 306.319 60.2449 305.61C61.6119 304.909 62.9162 303.947 64.1365 303.135L64.1375 303.134Z" fill="#04D361" stroke="#04D361"/>
<path d="M97.6989 343.854C82.8265 328.824 65.5833 318.397 47.0908 313.247" stroke="white" stroke-width="0.8986" stroke-miterlimit="10" stroke-linecap="round" stroke-linejoin="round"/>
<path d="M523.847 71.5967C523.847 74.4913 521.504 76.8379 518.613 76.8379C515.723 76.8379 513.379 74.4913 513.379 71.5967C513.379 68.7022 515.723 66.3555 518.613 66.3555C521.495 66.3555 523.847 68.7022 523.847 71.5967Z" stroke="#04D361" stroke-width="2" stroke-miterlimit="10" stroke-linecap="round" stroke-linejoin="round"/>
<path d="M522.397 75.2124L526.09 78.919" stroke="#04D361" stroke-width="2" stroke-miterlimit="10" stroke-linecap="round" stroke-linejoin="round"/>
<path d="M319.068 1L324.575 6.51422" stroke="#04D361" stroke-width="2" stroke-miterlimit="10" stroke-linecap="round" stroke-linejoin="round"/>
<path d="M324.575 1L319.068 6.51422" stroke="#04D361" stroke-width="2" stroke-miterlimit="10" stroke-linecap="round" stroke-linejoin="round"/>
<path d="M397.995 318.459L403.501 323.974" stroke="#04D361" stroke-width="2" stroke-miterlimit="10" stroke-linecap="round" stroke-linejoin="round"/>
<path d="M403.501 318.459L397.995 323.974" stroke="#04D361" stroke-width="2" stroke-miterlimit="10" stroke-linecap="round" stroke-linejoin="round"/>
<path d="M48.5352 245.386V253.184" stroke="#04D361" stroke-width="2" stroke-miterlimit="10" stroke-linecap="round" stroke-linejoin="round"/>
<path d="M52.4387 249.285H44.6423" stroke="#04D361" stroke-width="2" stroke-miterlimit="10" stroke-linecap="round" stroke-linejoin="round"/>
<path d="M31.5993 185.515C31.5993 188.126 29.4838 190.254 26.8668 190.254C24.2588 190.254 22.1342 188.136 22.1342 185.515C22.1342 182.903 24.2497 180.776 26.8668 180.776C29.4838 180.785 31.5993 182.903 31.5993 185.515Z" stroke="#04D361" stroke-width="2" stroke-miterlimit="10" stroke-linecap="round" stroke-linejoin="round"/>
<path d="M228.027 300.134C228.027 302.746 225.911 304.873 223.294 304.873C220.687 304.873 218.562 302.755 218.562 300.134C218.562 297.523 220.677 295.395 223.294 295.395C225.911 295.404 228.027 297.523 228.027 300.134Z" stroke="#04D361" stroke-width="2" stroke-miterlimit="10" stroke-linecap="round" stroke-linejoin="round"/>
<path d="M540.339 214.786C540.339 217.398 538.224 219.525 535.607 219.525C532.999 219.525 530.874 217.407 530.874 214.786C530.874 212.175 532.99 210.047 535.607 210.047C538.224 210.056 540.339 212.175 540.339 214.786Z" stroke="#04D361" stroke-width="2" stroke-miterlimit="10" stroke-linecap="round" stroke-linejoin="round"/>
<path d="M1.71387 101.248C2.38369 101.248 2.92773 101.792 2.92773 102.465C2.92749 103.137 2.38355 103.681 1.71387 103.681C1.04424 103.681 0.500242 103.137 0.5 102.465C0.5 101.792 1.0441 101.248 1.71387 101.248Z" fill="#9871F5" stroke="#9871F5"/>
<path d="M13.6866 101.248C14.3565 101.248 14.9005 101.792 14.9005 102.465C14.9003 103.137 14.3563 103.681 13.6866 103.681C13.017 103.681 12.473 103.137 12.4728 102.465C12.4728 101.792 13.0169 101.248 13.6866 101.248Z" fill="#9871F5" stroke="#9871F5"/>
<path d="M25.6503 101.248C26.3201 101.248 26.8641 101.792 26.8641 102.465C26.8639 103.137 26.3199 103.681 25.6503 103.681C24.9806 103.681 24.4366 103.137 24.4364 102.465C24.4364 101.792 24.9805 101.248 25.6503 101.248Z" fill="#9871F5" stroke="#9871F5"/>
<path d="M37.6229 101.248C38.2928 101.248 38.8368 101.792 38.8368 102.465C38.8366 103.137 38.2926 103.681 37.6229 103.681C36.9533 103.681 36.4093 103.137 36.4091 102.465C36.4091 101.792 36.9532 101.248 37.6229 101.248Z" fill="#9871F5" stroke="#9871F5"/>
<path d="M49.5865 101.248C50.2563 101.248 50.8004 101.792 50.8004 102.465C50.8001 103.137 50.2562 103.681 49.5865 103.681C48.9169 103.681 48.3729 103.137 48.3726 102.465C48.3726 101.792 48.9167 101.248 49.5865 101.248Z" fill="#9871F5" stroke="#9871F5"/>
<path d="M61.5591 101.248C62.2289 101.248 62.7729 101.792 62.7729 102.465C62.7727 103.137 62.2288 103.681 61.5591 103.681C60.8895 103.681 60.3455 103.137 60.3452 102.465C60.3452 101.792 60.8893 101.248 61.5591 101.248Z" fill="#9871F5" stroke="#9871F5"/>
<path d="M1.71387 113.228C2.38369 113.228 2.92773 113.772 2.92773 114.445C2.92749 115.117 2.38354 115.661 1.71387 115.661C1.04425 115.661 0.500243 115.117 0.5 114.445C0.5 113.772 1.0441 113.228 1.71387 113.228Z" fill="#9871F5" stroke="#9871F5"/>
<path d="M13.6866 113.228C14.3565 113.228 14.9005 113.772 14.9005 114.445C14.9003 115.117 14.3563 115.661 13.6866 115.661C13.017 115.661 12.473 115.117 12.4728 114.445C12.4728 113.772 13.0169 113.228 13.6866 113.228Z" fill="#9871F5" stroke="#9871F5"/>
<path d="M25.6503 113.228C26.3201 113.228 26.8641 113.772 26.8641 114.445C26.8639 115.117 26.3199 115.661 25.6503 115.661C24.9807 115.661 24.4366 115.117 24.4364 114.445C24.4364 113.772 24.9805 113.228 25.6503 113.228Z" fill="#9871F5" stroke="#9871F5"/>
<path d="M37.6229 113.228C38.2928 113.228 38.8368 113.772 38.8368 114.445C38.8365 115.117 38.2926 115.661 37.6229 115.661C36.9533 115.661 36.4093 115.117 36.4091 114.445C36.4091 113.772 36.9532 113.228 37.6229 113.228Z" fill="#9871F5" stroke="#9871F5"/>
<path d="M49.5865 113.228C50.2563 113.228 50.8004 113.772 50.8004 114.445C50.8001 115.117 50.2562 115.661 49.5865 115.661C48.9169 115.661 48.3729 115.117 48.3726 114.445C48.3726 113.772 48.9167 113.228 49.5865 113.228Z" fill="#9871F5" stroke="#9871F5"/>
<path d="M61.5591 113.228C62.2289 113.228 62.7729 113.772 62.7729 114.445C62.7727 115.117 62.2288 115.661 61.5591 115.661C60.8895 115.661 60.3455 115.117 60.3452 114.445C60.3452 113.772 60.8893 113.228 61.5591 113.228Z" fill="#9871F5" stroke="#9871F5"/>
<path d="M1.71387 125.217C2.38369 125.217 2.92773 125.762 2.92773 126.434C2.92749 127.106 2.38355 127.65 1.71387 127.65C1.04424 127.65 0.500242 127.106 0.5 126.434C0.5 125.762 1.0441 125.217 1.71387 125.217Z" fill="#9871F5" stroke="#9871F5"/>
<path d="M13.6866 125.217C14.3565 125.217 14.9005 125.762 14.9005 126.434C14.9003 127.106 14.3563 127.65 13.6866 127.65C13.017 127.65 12.473 127.106 12.4728 126.434C12.4728 125.762 13.0169 125.217 13.6866 125.217Z" fill="#9871F5" stroke="#9871F5"/>
<path d="M25.6503 125.217C26.3201 125.217 26.8641 125.762 26.8641 126.434C26.8639 127.106 26.3199 127.65 25.6503 127.65C24.9806 127.65 24.4366 127.106 24.4364 126.434C24.4364 125.762 24.9805 125.217 25.6503 125.217Z" fill="#9871F5" stroke="#9871F5"/>
<path d="M37.6229 125.217C38.2928 125.217 38.8368 125.762 38.8368 126.434C38.8366 127.106 38.2926 127.65 37.6229 127.65C36.9533 127.65 36.4093 127.106 36.4091 126.434C36.4091 125.762 36.9532 125.217 37.6229 125.217Z" fill="#9871F5" stroke="#9871F5"/>
<path d="M49.5865 125.217C50.2563 125.217 50.8004 125.762 50.8004 126.434C50.8001 127.106 50.2562 127.65 49.5865 127.65C48.9169 127.65 48.3729 127.106 48.3726 126.434C48.3726 125.762 48.9167 125.217 49.5865 125.217Z" fill="#9871F5" stroke="#9871F5"/>
<path d="M61.5591 125.217C62.2289 125.217 62.7729 125.762 62.7729 126.434C62.7727 127.106 62.2288 127.65 61.5591 127.65C60.8895 127.65 60.3455 127.106 60.3452 126.434C60.3452 125.762 60.8893 125.217 61.5591 125.217Z" fill="#9871F5" stroke="#9871F5"/>
<path d="M1.71387 137.197C2.38369 137.197 2.92773 137.742 2.92773 138.414C2.92749 139.086 2.38354 139.63 1.71387 139.63C1.04425 139.63 0.500241 139.086 0.5 138.414C0.5 137.742 1.0441 137.197 1.71387 137.197Z" fill="#9871F5" stroke="#9871F5"/>
<path d="M13.6866 137.197C14.3565 137.197 14.9005 137.742 14.9005 138.414C14.9003 139.086 14.3563 139.63 13.6866 139.63C13.017 139.63 12.473 139.086 12.4728 138.414C12.4728 137.742 13.0169 137.197 13.6866 137.197Z" fill="#9871F5" stroke="#9871F5"/>
<path d="M25.6503 137.197C26.3201 137.197 26.8641 137.742 26.8641 138.414C26.8639 139.086 26.3199 139.63 25.6503 139.63C24.9807 139.63 24.4366 139.086 24.4364 138.414C24.4364 137.742 24.9805 137.197 25.6503 137.197Z" fill="#9871F5" stroke="#9871F5"/>
<path d="M37.6229 137.197C38.2928 137.197 38.8368 137.742 38.8368 138.414C38.8366 139.086 38.2926 139.63 37.6229 139.63C36.9533 139.63 36.4093 139.086 36.4091 138.414C36.4091 137.742 36.9532 137.197 37.6229 137.197Z" fill="#9871F5" stroke="#9871F5"/>
<path d="M49.5865 137.197C50.2563 137.197 50.8004 137.742 50.8004 138.414C50.8001 139.086 50.2562 139.63 49.5865 139.63C48.9169 139.63 48.3729 139.086 48.3726 138.414C48.3726 137.742 48.9167 137.197 49.5865 137.197Z" fill="#9871F5" stroke="#9871F5"/>
<path d="M61.5591 137.197C62.2289 137.197 62.7729 137.742 62.7729 138.414C62.7727 139.086 62.2288 139.63 61.5591 139.63C60.8895 139.63 60.3455 139.086 60.3452 138.414C60.3452 137.742 60.8893 137.197 61.5591 137.197Z" fill="#9871F5" stroke="#9871F5"/>
<path d="M186.41 326.973C187.079 326.973 187.623 327.517 187.623 328.189C187.623 328.862 187.079 329.405 186.41 329.405C185.74 329.405 185.196 328.862 185.196 328.189C185.196 327.517 185.74 326.973 186.41 326.973Z" fill="#9871F5" stroke="#9871F5"/>
<path d="M198.382 326.973C199.052 326.973 199.596 327.517 199.596 328.189C199.596 328.862 199.052 329.405 198.382 329.405C197.713 329.405 197.169 328.862 197.168 328.189C197.168 327.517 197.713 326.973 198.382 326.973Z" fill="#9871F5" stroke="#9871F5"/>
<path d="M210.346 326.973C211.016 326.973 211.56 327.517 211.56 328.189C211.56 328.862 211.016 329.405 210.346 329.405C209.676 329.405 209.132 328.862 209.132 328.189C209.132 327.517 209.676 326.973 210.346 326.973Z" fill="#9871F5" stroke="#9871F5"/>
<path d="M222.318 326.973C222.988 326.973 223.532 327.517 223.532 328.189C223.532 328.862 222.988 329.405 222.318 329.405C221.649 329.405 221.105 328.862 221.105 328.189C221.105 327.517 221.649 326.973 222.318 326.973Z" fill="#9871F5" stroke="#9871F5"/>
<path d="M234.282 326.973C234.952 326.973 235.496 327.517 235.496 328.189C235.496 328.862 234.952 329.405 234.282 329.405C233.612 329.405 233.068 328.862 233.068 328.189C233.068 327.517 233.612 326.973 234.282 326.973Z" fill="#9871F5" stroke="#9871F5"/>
<path d="M186.41 338.962C187.079 338.962 187.623 339.506 187.623 340.179C187.623 340.851 187.079 341.395 186.41 341.395C185.74 341.394 185.196 340.851 185.196 340.179C185.196 339.506 185.74 338.962 186.41 338.962Z" fill="#9871F5" stroke="#9871F5"/>
<path d="M198.382 338.962C199.052 338.962 199.596 339.506 199.596 340.179C199.596 340.851 199.052 341.395 198.382 341.395C197.713 341.394 197.169 340.851 197.168 340.179C197.168 339.506 197.713 338.962 198.382 338.962Z" fill="#9871F5" stroke="#9871F5"/>
<path d="M210.346 338.962C211.016 338.962 211.56 339.506 211.56 340.179C211.56 340.851 211.016 341.395 210.346 341.395C209.676 341.394 209.132 340.851 209.132 340.179C209.132 339.506 209.676 338.962 210.346 338.962Z" fill="#9871F5" stroke="#9871F5"/>
<path d="M222.318 338.962C222.988 338.962 223.532 339.506 223.532 340.179C223.532 340.851 222.988 341.395 222.318 341.395C221.649 341.394 221.105 340.851 221.105 340.179C221.105 339.506 221.649 338.962 222.318 338.962Z" fill="#9871F5" stroke="#9871F5"/>
<path d="M234.282 338.962C234.952 338.962 235.496 339.506 235.496 340.179C235.496 340.851 234.952 341.395 234.282 341.395C233.612 341.394 233.068 340.851 233.068 340.179C233.068 339.506 233.612 338.962 234.282 338.962Z" fill="#9871F5" stroke="#9871F5"/>
<path d="M489.716 27.1812C490.386 27.1812 490.93 27.7255 490.93 28.3979C490.929 29.0702 490.385 29.6138 489.716 29.6138C489.046 29.6137 488.502 29.0701 488.502 28.3979C488.502 27.7256 489.046 27.1812 489.716 27.1812Z" fill="#9871F5" stroke="#9871F5"/>
<path d="M501.68 27.1812C502.349 27.1812 502.893 27.7255 502.893 28.3979C502.893 29.0702 502.349 29.6138 501.68 29.6138C501.01 29.6137 500.466 29.0701 500.466 28.3979C500.466 27.7256 501.01 27.1812 501.68 27.1812Z" fill="#9871F5" stroke="#9871F5"/>
<path d="M513.652 27.1812C514.322 27.1812 514.866 27.7255 514.866 28.3979C514.866 29.0702 514.322 29.6138 513.652 29.6138C512.983 29.6137 512.439 29.0701 512.438 28.3979C512.438 27.7256 512.983 27.1812 513.652 27.1812Z" fill="#9871F5" stroke="#9871F5"/>
<path d="M489.716 39.1704C490.386 39.1704 490.93 39.7148 490.93 40.3872C490.93 41.0594 490.386 41.603 489.716 41.603C489.046 41.6029 488.502 41.0594 488.502 40.3872C488.502 39.7149 489.046 39.1705 489.716 39.1704Z" fill="#9871F5" stroke="#9871F5"/>
<path d="M501.68 39.1704C502.349 39.1704 502.893 39.7148 502.893 40.3872C502.893 41.0594 502.349 41.603 501.68 41.603C501.01 41.603 500.466 41.0594 500.466 40.3872C500.466 39.7148 501.01 39.1705 501.68 39.1704Z" fill="#9871F5" stroke="#9871F5"/>
<path d="M513.652 39.1704C514.322 39.1704 514.866 39.7148 514.866 40.3872C514.866 41.0594 514.322 41.603 513.652 41.603C512.983 41.603 512.439 41.0594 512.438 40.3872C512.438 39.7148 512.983 39.1705 513.652 39.1704Z" fill="#9871F5" stroke="#9871F5"/>
<path d="M176.368 4.5C177.038 4.5 177.582 5.04437 177.582 5.7168C177.581 6.38901 177.038 6.93262 176.368 6.93262C175.698 6.93253 175.154 6.38894 175.154 5.7168C175.154 5.04445 175.698 4.50009 176.368 4.5Z" fill="#9871F5" stroke="#9871F5"/>
<path d="M188.332 4.5C189.001 4.5 189.545 5.04438 189.545 5.7168C189.545 6.389 189.001 6.93262 188.332 6.93262C187.662 6.93255 187.118 6.38896 187.118 5.7168C187.118 5.04443 187.662 4.50007 188.332 4.5Z" fill="#9871F5" stroke="#9871F5"/>
<path d="M200.304 4.5C200.974 4.5 201.518 5.04436 201.518 5.7168C201.518 6.38902 200.974 6.93262 200.304 6.93262C199.635 6.93255 199.091 6.38896 199.09 5.7168C199.09 5.04443 199.634 4.50007 200.304 4.5Z" fill="#9871F5" stroke="#9871F5"/>
<path d="M176.368 16.4893C177.038 16.4893 177.582 17.0336 177.582 17.7061C177.582 18.3783 177.038 18.9219 176.368 18.9219C175.698 18.9218 175.154 18.3782 175.154 17.7061C175.154 17.0337 175.698 16.4893 176.368 16.4893Z" fill="#9871F5" stroke="#9871F5"/>
<path d="M188.332 16.4893C189.001 16.4893 189.545 17.0336 189.545 17.7061C189.545 18.3783 189.001 18.9219 188.332 18.9219C187.662 18.9218 187.118 18.3782 187.118 17.7061C187.118 17.0337 187.662 16.4893 188.332 16.4893Z" fill="#9871F5" stroke="#9871F5"/>
<path d="M200.304 16.4893C200.974 16.4893 201.518 17.0336 201.518 17.7061C201.518 18.3783 200.974 18.9219 200.304 18.9219C199.635 18.9218 199.091 18.3782 199.09 17.7061C199.09 17.0337 199.634 16.4893 200.304 16.4893Z" fill="#9871F5" stroke="#9871F5"/>
<path d="M597.286 189.184C597.955 189.184 598.5 189.728 598.5 190.4C598.499 191.073 597.955 191.616 597.286 191.616C596.616 191.616 596.072 191.073 596.072 190.4C596.072 189.728 596.616 189.184 597.286 189.184Z" fill="#9871F5" stroke="#9871F5"/>
<path d="M597.286 201.173C597.956 201.173 598.5 201.717 598.5 202.39C598.499 203.062 597.955 203.605 597.286 203.605C596.616 203.605 596.072 203.062 596.072 202.39C596.072 201.717 596.616 201.173 597.286 201.173Z" fill="#9871F5" stroke="#9871F5"/>
<path d="M597.286 213.153C597.956 213.153 598.5 213.697 598.5 214.37C598.499 215.042 597.955 215.585 597.286 215.585C596.616 215.585 596.072 215.042 596.072 214.37C596.072 213.697 596.616 213.153 597.286 213.153Z" fill="#9871F5" stroke="#9871F5"/>
<path d="M597.286 225.142C597.956 225.142 598.5 225.686 598.5 226.358C598.499 227.031 597.955 227.574 597.286 227.574C596.616 227.574 596.072 227.031 596.072 226.358C596.072 225.686 596.616 225.142 597.286 225.142Z" fill="#9871F5" stroke="#9871F5"/>
<path d="M597.286 237.122C597.956 237.122 598.5 237.666 598.5 238.338C598.499 239.011 597.955 239.554 597.286 239.554C596.616 239.554 596.072 239.011 596.072 238.338C596.072 237.666 596.616 237.122 597.286 237.122Z" fill="#9871F5" stroke="#9871F5"/>
<path d="M597.286 249.111C597.956 249.111 598.5 249.655 598.5 250.328C598.499 251 597.955 251.543 597.286 251.543C596.616 251.543 596.072 251 596.072 250.328C596.072 249.655 596.616 249.111 597.286 249.111Z" fill="#9871F5" stroke="#9871F5"/>
<path d="M597.286 261.091C597.956 261.091 598.5 261.635 598.5 262.308C598.499 262.98 597.955 263.523 597.286 263.523C596.616 263.523 596.072 262.98 596.072 262.308C596.072 261.635 596.616 261.091 597.286 261.091Z" fill="#9871F5" stroke="#9871F5"/>
<path d="M585.313 189.184C585.983 189.184 586.527 189.728 586.527 190.4C586.527 191.073 585.983 191.616 585.313 191.616C584.643 191.616 584.099 191.073 584.099 190.4C584.099 189.728 584.643 189.184 585.313 189.184Z" fill="#9871F5" stroke="#9871F5"/>
<path d="M585.313 201.173C585.983 201.173 586.527 201.717 586.527 202.39C586.527 203.062 585.983 203.605 585.313 203.605C584.643 203.605 584.099 203.062 584.099 202.39C584.099 201.717 584.643 201.173 585.313 201.173Z" fill="#9871F5" stroke="#9871F5"/>
<path d="M585.313 213.153C585.983 213.153 586.527 213.697 586.527 214.37C586.527 215.042 585.983 215.585 585.313 215.585C584.643 215.585 584.099 215.042 584.099 214.37C584.099 213.697 584.643 213.153 585.313 213.153Z" fill="#9871F5" stroke="#9871F5"/>
<path d="M585.313 225.142C585.983 225.142 586.527 225.686 586.527 226.358C586.527 227.031 585.983 227.574 585.313 227.574C584.643 227.574 584.099 227.031 584.099 226.358C584.099 225.686 584.643 225.142 585.313 225.142Z" fill="#9871F5" stroke="#9871F5"/>
<path d="M585.313 237.122C585.983 237.122 586.527 237.666 586.527 238.338C586.527 239.011 585.983 239.554 585.313 239.554C584.643 239.554 584.099 239.011 584.099 238.338C584.099 237.666 584.643 237.122 585.313 237.122Z" fill="#9871F5" stroke="#9871F5"/>
<path d="M585.313 249.111C585.983 249.111 586.527 249.655 586.527 250.328C586.527 251 585.983 251.543 585.313 251.543C584.643 251.543 584.099 251 584.099 250.328C584.099 249.655 584.643 249.111 585.313 249.111Z" fill="#9871F5" stroke="#9871F5"/>
<path d="M585.313 261.091C585.983 261.091 586.527 261.635 586.527 262.308C586.527 262.98 585.983 263.523 585.313 263.523C584.643 263.523 584.099 262.98 584.099 262.308C584.099 261.635 584.643 261.091 585.313 261.091Z" fill="#9871F5" stroke="#9871F5"/>
<path d="M573.35 189.184C574.019 189.184 574.563 189.728 574.563 190.4C574.563 191.073 574.019 191.616 573.35 191.616C572.68 191.616 572.136 191.073 572.136 190.4C572.136 189.728 572.68 189.184 573.35 189.184Z" fill="#9871F5" stroke="#9871F5"/>
<path d="M573.35 201.173C574.019 201.173 574.563 201.717 574.563 202.39C574.563 203.062 574.019 203.605 573.35 203.605C572.68 203.605 572.136 203.062 572.136 202.39C572.136 201.717 572.68 201.173 573.35 201.173Z" fill="#9871F5" stroke="#9871F5"/>
<path d="M573.35 213.153C574.019 213.153 574.563 213.697 574.563 214.37C574.563 215.042 574.019 215.585 573.35 215.585C572.68 215.585 572.136 215.042 572.136 214.37C572.136 213.697 572.68 213.153 573.35 213.153Z" fill="#9871F5" stroke="#9871F5"/>
<path d="M573.35 225.142C574.019 225.142 574.563 225.686 574.563 226.358C574.563 227.031 574.019 227.574 573.35 227.574C572.68 227.574 572.136 227.031 572.136 226.358C572.136 225.686 572.68 225.142 573.35 225.142Z" fill="#9871F5" stroke="#9871F5"/>
<path d="M573.35 237.122C574.019 237.122 574.563 237.666 574.563 238.338C574.563 239.011 574.019 239.554 573.35 239.554C572.68 239.554 572.136 239.011 572.136 238.338C572.136 237.666 572.68 237.122 573.35 237.122Z" fill="#9871F5" stroke="#9871F5"/>
<path d="M573.35 249.111C574.019 249.111 574.563 249.655 574.563 250.328C574.563 251 574.019 251.543 573.35 251.543C572.68 251.543 572.136 251 572.136 250.328C572.136 249.655 572.68 249.111 573.35 249.111Z" fill="#9871F5" stroke="#9871F5"/>
<path d="M573.35 261.091C574.019 261.091 574.563 261.635 574.563 262.308C574.563 262.98 574.019 263.523 573.35 263.523C572.68 263.523 572.136 262.98 572.136 262.308C572.136 261.635 572.68 261.091 573.35 261.091Z" fill="#9871F5" stroke="#9871F5"/>
<path d="M561.377 189.184C562.047 189.184 562.591 189.728 562.591 190.4C562.59 191.073 562.046 191.616 561.377 191.616C560.707 191.616 560.163 191.073 560.163 190.4C560.163 189.728 560.707 189.184 561.377 189.184Z" fill="#9871F5" stroke="#9871F5"/>
<path d="M561.377 201.173C562.047 201.173 562.591 201.717 562.591 202.39C562.59 203.062 562.046 203.605 561.377 203.605C560.707 203.605 560.163 203.062 560.163 202.39C560.163 201.717 560.707 201.173 561.377 201.173Z" fill="#9871F5" stroke="#9871F5"/>
<path d="M561.377 213.153C562.047 213.153 562.591 213.697 562.591 214.37C562.59 215.042 562.046 215.585 561.377 215.585C560.707 215.585 560.163 215.042 560.163 214.37C560.163 213.697 560.707 213.153 561.377 213.153Z" fill="#9871F5" stroke="#9871F5"/>
<path d="M561.377 225.142C562.047 225.142 562.591 225.686 562.591 226.358C562.59 227.031 562.046 227.574 561.377 227.574C560.707 227.574 560.163 227.031 560.163 226.358C560.163 225.686 560.707 225.142 561.377 225.142Z" fill="#9871F5" stroke="#9871F5"/>
<path d="M561.377 237.122C562.047 237.122 562.591 237.666 562.591 238.338C562.59 239.011 562.046 239.554 561.377 239.554C560.707 239.554 560.163 239.011 560.163 238.338C560.163 237.666 560.707 237.122 561.377 237.122Z" fill="#9871F5" stroke="#9871F5"/>
<path d="M561.377 249.111C562.047 249.111 562.591 249.655 562.591 250.328C562.59 251 562.046 251.543 561.377 251.543C560.707 251.543 560.163 251 560.163 250.328C560.163 249.655 560.707 249.111 561.377 249.111Z" fill="#9871F5" stroke="#9871F5"/>
<path d="M561.377 261.091C562.047 261.091 562.591 261.635 562.591 262.308C562.59 262.98 562.046 263.523 561.377 263.523C560.707 263.523 560.163 262.98 560.163 262.308C560.163 261.635 560.707 261.091 561.377 261.091Z" fill="#9871F5" stroke="#9871F5"/>
<path d="M148.287 49.7622H459.059C464.669 49.7624 469.228 54.3569 469.228 60.0308V251.574C469.219 257.248 464.659 261.842 459.049 261.842H148.287C142.677 261.842 138.118 257.248 138.118 251.574V60.0308C138.118 54.3568 142.677 49.7622 148.287 49.7622Z" fill="#04D361" stroke="#04D361"/>
<path d="M458.6 253.268H148.733C143.927 253.268 140.025 249.36 140.025 244.548V60.0732C140.025 55.2611 143.927 51.353 148.733 51.353H458.6C463.406 51.353 467.309 55.2611 467.309 60.0732V244.548C467.309 249.369 463.406 253.268 458.6 253.268Z" fill="white"/>
<path d="M356.692 68.6108V198.765C356.692 202.691 353.518 205.869 349.597 205.869H153.894C152.135 205.869 150.521 205.23 149.28 204.161C147.767 202.856 146.8 200.929 146.8 198.765V68.6108C146.8 64.6845 149.983 61.5068 153.894 61.5068H349.597C351.357 61.5068 352.98 62.146 354.211 63.2143C355.734 64.5201 356.692 66.4467 356.692 68.6108Z" fill="#E6E6F0"/>
<path d="M453.5 117.142H372.491C368.57 117.142 365.396 113.965 365.396 110.038V68.6108C365.396 64.6845 368.57 61.5068 372.491 61.5068H453.5C457.421 61.5068 460.594 64.6845 460.594 68.6108V110.038C460.594 113.965 457.412 117.142 453.5 117.142Z" fill="#E6E6F0"/>
<path d="M453.5 182.636H372.491C368.57 182.636 365.396 179.458 365.396 175.532V134.104C365.396 130.178 368.57 127 372.491 127H453.5C457.421 127 460.594 130.178 460.594 134.104V175.532C460.594 179.458 457.412 182.636 453.5 182.636Z" fill="#E6E6F0"/>
<path d="M453.5 244.691H372.491C368.57 244.691 365.396 241.513 365.396 237.587V200.104C365.396 196.178 368.57 193 372.491 193H453.5C457.421 193 460.594 196.178 460.594 200.104V237.587C460.594 241.513 457.412 244.691 453.5 244.691Z" fill="#E6E6F0"/>
<path d="M253.825 219.839H149.381C147.958 219.839 146.809 218.689 146.809 217.264C146.809 215.84 147.958 214.689 149.381 214.689H253.825C255.247 214.689 256.396 215.84 256.396 217.264C256.396 218.68 255.247 219.839 253.825 219.839Z" fill="#E6E6F0"/>
<path d="M259.853 244H149.485C147.981 244 146.767 242.884 146.767 241.501V231.499C146.767 230.116 147.981 229 149.485 229H259.853C261.357 229 262.571 230.116 262.571 231.499V241.501C262.571 242.884 261.357 244 259.853 244Z" fill="#E6E6F0"/>
<path d="M331.15 219.839H354.12C355.543 219.839 356.692 218.689 356.692 217.264C356.692 215.84 355.543 214.689 354.12 214.689H331.15C329.728 214.689 328.579 215.84 328.579 217.264C328.579 218.68 329.728 219.839 331.15 219.839Z" fill="#E6E6F0"/>
<path d="M292.187 219.839H315.156C316.579 219.839 317.728 218.689 317.728 217.264C317.728 215.84 316.579 214.689 315.156 214.689H292.187C290.764 214.689 289.615 215.84 289.615 217.264C289.606 218.68 290.764 219.839 292.187 219.839Z" fill="#E6E6F0"/>
<path d="M308.564 244.11H354.12C355.543 244.11 356.692 242.959 356.692 241.535V231.226C356.692 229.801 355.543 228.651 354.12 228.651H308.564C307.141 228.651 305.992 229.801 305.992 231.226V241.535C305.992 242.959 307.141 244.11 308.564 244.11Z" fill="#E6E6F0"/>
<g opacity="0.24">
<path d="M412.702 104.14C420.634 104.14 427.064 97.701 427.064 89.7584C427.064 81.8157 420.634 75.377 412.702 75.377C404.77 75.377 398.34 81.8157 398.34 89.7584C398.34 97.701 404.77 104.14 412.702 104.14Z" fill="#E6E6F0" stroke="#6842C2" stroke-width="2" stroke-miterlimit="10"/>
<path d="M418.587 88.3405L410.389 83.6015C409.487 83.081 408.365 83.7293 408.365 84.7703V94.2483C408.365 95.2893 409.487 95.9376 410.389 95.4171L418.587 90.6781C419.49 90.1576 419.49 88.861 418.587 88.3405Z" fill="#E6E6F0" stroke="#6842C2" stroke-width="2" stroke-miterlimit="10"/>
</g>
<g opacity="0.24">
<path d="M412.702 168.763C420.634 168.763 427.064 162.324 427.064 154.381C427.064 146.439 420.634 140 412.702 140C404.77 140 398.34 146.439 398.34 154.381C398.34 162.324 404.77 168.763 412.702 168.763Z" fill="#E6E6F0" stroke="#6842C2" stroke-width="2" stroke-miterlimit="10"/>
<path d="M418.587 152.964L410.389 148.225C409.487 147.704 408.365 148.352 408.365 149.393V158.871C408.365 159.912 409.487 160.561 410.389 160.04L418.587 155.301C419.49 154.781 419.49 153.484 418.587 152.964Z" fill="#E6E6F0" stroke="#6842C2" stroke-width="2" stroke-miterlimit="10"/>
</g>
<g opacity="0.24">
<path d="M412.702 232.763C420.634 232.763 427.064 226.324 427.064 218.381C427.064 210.439 420.634 204 412.702 204C404.77 204 398.34 210.439 398.34 218.381C398.34 226.324 404.77 232.763 412.702 232.763Z" fill="#E6E6F0" stroke="#6842C2" stroke-width="2" stroke-miterlimit="10"/>
<path d="M418.587 216.963L410.389 212.224C409.487 211.704 408.365 212.352 408.365 213.393V222.871C408.365 223.912 409.487 224.56 410.389 224.04L418.587 219.301C419.49 218.78 419.49 217.484 418.587 216.963Z" fill="#E6E6F0" stroke="#6842C2" stroke-width="2" stroke-miterlimit="10"/>
</g>
<path d="M354.211 63.2143L149.28 204.161C147.767 202.856 146.8 200.929 146.8 198.765V68.6108C146.8 64.6845 149.983 61.5068 153.894 61.5068H349.597C351.357 61.5068 352.98 62.146 354.211 63.2143Z" fill="#F2F2FA"/>
<mask id="mask0_140086_463" style="mask-type:alpha" maskUnits="userSpaceOnUse" x="147" y="32" width="210" height="175">
<path d="M356.947 40.8188V197.587C356.947 202.316 353.78 206.144 349.866 206.144H154.512C152.755 206.144 151.144 205.374 149.906 204.087C148.395 202.514 147.43 200.194 147.43 197.587V40.8188C147.43 36.0896 150.607 32.2622 154.512 32.2622H349.866C351.623 32.2622 353.243 33.0321 354.472 34.3189C355.992 35.8916 356.947 38.2122 356.947 40.8188Z" fill="#A3D1DE"/>
</mask>
<g mask="url(#mask0_140086_463)">
<path d="M340.442 142.967C340.442 142.967 352.141 133.718 352.451 131.07C353.035 126.084 354.822 122.176 365.527 118.87C365.527 118.87 366.357 120.459 364.871 122.185C363.248 124.057 361.962 124.714 361.962 124.714C361.962 124.714 364.798 125.801 369.02 122.495C373.242 119.199 375.02 116.332 376.798 117.035C376.798 117.035 378.895 115.136 379.889 115.437C379.889 115.437 380.619 115.656 380.482 116.442C382.132 116.186 381.795 120.952 378.859 124.824C374.637 130.394 369.366 135.188 365.053 136.767C361.816 137.954 348.439 151.587 348.439 151.587L340.442 142.967Z" fill="#FFCAD0"/>
<path d="M304.314 190.157C299.208 191.883 270.877 148.254 270.877 148.254C259.925 135.635 269.755 94.0707 279.667 108.644C279.667 108.644 305.445 155.34 308.226 159.102C311.682 163.777 323.181 183.774 304.314 190.157Z" fill="#04D361"/>
<path d="M272.39 233.465H197.691C197.691 233.465 191.955 230.936 196.943 219.906C198.812 215.788 198.001 205.177 197.691 190.613C197.062 161.814 188.527 114.013 199.059 108.534C205.369 105.238 218.773 100.901 228.502 97.9331C229.086 97.7687 229.651 97.5952 230.208 97.4309C235.888 95.7325 239.946 94.6094 239.946 94.6094C239.946 94.6094 244.651 95.2942 254.208 98.1248C254.727 98.2801 255.265 98.4444 255.822 98.6088C258.311 99.3666 261.083 100.252 264.165 101.302C280.87 106.991 278.992 104.964 281.208 125.856C282.977 142.538 272.39 233.465 272.39 233.465Z" fill="#04D361"/>
<path d="M255.822 98.5996C255.603 102.142 254.016 105.274 251.6 107.566C249.147 109.913 245.819 111.337 242.189 111.337C234.703 111.337 228.648 105.338 228.493 97.9331C229.077 97.7687 229.642 97.5952 230.199 97.4309C235.879 95.7325 239.937 94.6094 239.937 94.6094C239.937 94.6094 244.642 95.2942 254.199 98.1248C254.718 98.2709 255.265 98.4353 255.822 98.5996Z" fill="#F2F2FA"/>
<path d="M254.18 68.6956L253.004 91.4502L252.667 97.9424C252.53 100.7 251.317 103.156 249.439 104.928C247.579 106.699 245.062 107.777 242.308 107.777C236.481 107.777 231.785 102.964 231.94 97.1388L232.232 85.5515L232.724 66.3032L254.18 68.6956Z" fill="#FBD5D9"/>
<path d="M254.18 73.2427L253.004 94.6733C242.937 95.0751 235.597 90.9844 232.232 85.524L232.724 70.8687L254.18 73.2427Z" fill="#FFA4AD"/>
<path d="M226.04 46.4156C226.04 46.4156 216.393 45.2103 217.496 57.318C218.354 66.7048 231.092 79.2326 231.092 79.2326C231.092 79.2326 239.135 50.9446 226.04 46.4156Z" fill="#8F4A3F"/>
<path d="M265.442 55.1357C264.785 56.6332 263.773 57.939 262.943 59.3451C262.123 60.7513 261.466 62.3584 261.649 63.9837C261.484 61.3449 259.743 59.126 258.238 56.9619C256.734 54.7888 255.366 52.159 256.086 49.6206C256.77 47.1826 261.174 43.3384 263.855 44.9181C266.837 46.6712 266.609 52.4786 265.442 55.1357Z" fill="#0E1235"/>
<path d="M262.168 55.6194C262.168 55.6194 262.916 63.0338 261.877 71.2426C260.673 80.7298 261.101 91.8697 247.141 92.6185C232.241 93.4129 227.308 76.7122 227.308 76.7122C227.308 76.7122 219.393 75.2329 218.855 69.8821C218.317 64.5222 223.843 64.2209 225.648 65.7275C225.648 65.7275 227.691 45.7578 246.12 45.7578C262.378 45.7396 262.168 55.6194 262.168 55.6194Z" fill="#FBD5D9"/>
<path d="M244.66 70.8593C244.66 71.6719 244.004 72.3383 243.183 72.3383C242.363 72.3383 241.706 71.681 241.706 70.8593C241.706 70.0468 242.363 69.3804 243.183 69.3804C244.004 69.3804 244.66 70.0468 244.66 70.8593Z" fill="#9A5449"/>
<path d="M258.01 70.8593C258.01 71.6719 257.353 72.3383 256.533 72.3383C255.712 72.3383 255.056 71.681 255.056 70.8593C255.056 70.0468 255.712 69.3804 256.533 69.3804C257.353 69.3804 258.01 70.0468 258.01 70.8593Z" fill="#9A5449"/>
<path d="M237.813 65.7189C237.813 65.7189 240.001 62.1121 244.661 63.4087" stroke="#561E15" stroke-width="1.0274" stroke-miterlimit="10" stroke-linecap="round" stroke-linejoin="round"/>
<path d="M252.694 63.3538C252.694 63.3538 256.059 60.2767 259.369 63.646" stroke="#561E15" stroke-width="1.0274" stroke-miterlimit="10" stroke-linecap="round" stroke-linejoin="round"/>
<path d="M249.74 67.0156C249.74 67.0156 251.335 71.0972 252.694 73.6356C254.053 76.1741 250.041 77.3063 250.041 77.3063" stroke="#D66D78" stroke-width="0.7706" stroke-miterlimit="10" stroke-linecap="round" stroke-linejoin="round"/>
<path d="M244.396 81.8716C244.396 81.8716 247.688 85.0675 251.919 83.1134" stroke="#D66D78" stroke-width="0.7706" stroke-miterlimit="10" stroke-linecap="round" stroke-linejoin="round"/>
<path d="M225.383 71.5988C225.383 71.5988 225.338 67.0066 221.91 68.2574" stroke="#D66D78" stroke-width="0.7706" stroke-miterlimit="10" stroke-linecap="round" stroke-linejoin="round"/>
<path d="M229.907 50.2505C229.907 50.2505 238.287 58.7972 233.7 62.0661C228.594 65.7094 227.8 70.8593 227.8 70.8593C227.8 70.8593 227.91 69.0422 225.639 65.7185C223.369 62.3857 218.417 50.5701 229.907 50.2505Z" fill="#8F4A3F"/>
<path d="M304.314 190.157C310.406 194.129 356.701 144.611 356.701 144.611L348.485 133.846C348.485 133.846 313.287 155.961 308.226 159.102C300.931 163.622 283.825 176.807 304.314 190.157Z" fill="#04D361"/>
<path d="M279.694 161.366C279.694 161.366 281.764 138.731 281.409 131.544C281.409 131.544 284.354 150.546 284.427 168.105L279.694 161.366Z" fill="#03A14A"/>
<path d="M201.466 153.651C201.466 153.651 212.308 107.164 200.709 107.712C200.709 107.712 196.925 108.169 189.521 119.674C184.341 127.718 178.67 141.662 168.329 164.343C163.442 175.063 157.332 189.572 168.676 190.348C174.812 190.769 181.25 187.408 185.043 180.35C191.992 167.42 201.466 153.651 201.466 153.651Z" fill="#04D361"/>
<path d="M211.168 211.514L270.174 197.589C270.165 197.589 251.609 211.514 211.168 211.514Z" fill="#03A14A"/>
<path d="M195.32 162.992C195.32 162.992 204.84 146.108 209.901 137.872L198.019 202.456C198.019 202.456 196.861 176.076 195.32 162.992Z" fill="#03A14A"/>
<path d="M233.262 184.988L197.974 201.488L199.788 184.522L233.262 184.988Z" fill="#03A14A"/>
<path d="M248.345 147.412H260.728C262.932 147.412 264.602 149.412 264.202 151.588V151.589L258.375 183.447C258.063 185.128 256.601 186.342 254.901 186.342H242.518C240.382 186.342 238.748 184.465 239.012 182.369L239.043 182.166L244.87 150.308V150.307C245.173 148.628 246.634 147.412 248.345 147.412Z" fill="#04D361" stroke="#04D361"/>
<path d="M256.433 188.193H244.049C241.533 188.193 239.627 185.911 240.083 183.427L245.91 151.569C246.256 149.651 247.925 148.263 249.876 148.263H262.259C264.776 148.263 266.682 150.546 266.226 153.03L260.399 184.888C260.053 186.805 258.384 188.193 256.433 188.193Z" fill="white"/>
<path d="M248.919 151.548H251.135C251.306 151.548 251.432 151.703 251.401 151.867L251.4 151.872L249.978 159.651L249.977 159.655C249.956 159.776 249.848 159.872 249.712 159.872H247.496C247.325 159.871 247.199 159.716 247.231 159.552L247.232 159.548L248.654 151.768V151.764C248.676 151.643 248.784 151.548 248.919 151.548Z" fill="#04D361" stroke="#04D361"/>
<path d="M221.627 170.963C221.627 170.963 227.664 170.762 232.287 169.347C234.275 168.735 238.214 168.023 239.518 166.133C240.831 164.225 240.712 160.106 242.025 159.933C243.038 159.796 245.062 163.019 244.542 165.192C244.031 167.32 243.785 168.498 243.01 169.448C242.755 169.767 251.263 170.37 256.652 169.183C260.345 168.37 259.25 172.032 256.743 173.182C256.743 173.182 257.636 175.419 255.019 176.177C255.019 176.177 255.047 179.163 252.548 179.3C252.266 179.994 251.782 181.473 249.621 182.003C246.475 182.779 241.724 183.071 236.937 182.642C234.503 182.423 223.268 184.395 223.268 184.395L221.627 170.963Z" fill="#FFCAD0"/>
<path d="M168.311 190.522C176.928 192.029 228.293 186.221 228.293 186.221L227.016 168.224C227.016 168.224 185.162 170.178 179.581 169.676C161.125 168.041 157.587 188.65 168.311 190.522Z" fill="#04D361"/>
<path d="M231.94 36.6812C232.825 35.7955 233.81 34.855 235.05 34.718C236.29 34.5811 237.703 35.7407 237.293 36.9277C241.515 35.0924 245.928 33.7227 250.442 32.8461C251.573 32.627 252.794 32.4444 253.843 32.9466C254.883 33.4488 255.53 34.9006 254.819 35.8046C257.007 36.6264 259.433 36.0877 261.758 35.8137C264.083 35.5398 266.737 35.6585 268.314 37.3843C269.782 38.9822 269.81 41.3928 269.764 43.566C269.691 46.5427 269.618 49.5377 268.943 52.4414C267.94 56.733 265.606 60.6959 262.332 63.6452C263.308 60.3033 261.566 56.5961 258.822 54.4503C256.086 52.2953 252.557 51.4461 249.101 51.0535C244.962 50.5787 240.749 50.6883 236.627 51.364C233.518 51.8753 229.077 54.0941 225.986 52.688C219.138 49.5834 229.296 39.3292 231.94 36.6812Z" fill="#8F4A3F"/>
</g>
<path d="M337.798 75.158H294.922C291.64 75.158 288.977 72.4917 288.977 69.2045V51.1981C288.977 47.9109 291.64 45.2446 294.922 45.2446H337.798C341.081 45.2446 343.743 47.9109 343.743 51.1981V69.2045C343.743 72.4917 341.081 75.158 337.798 75.158Z" fill="#04D361"/>
<path d="M298.15 73.2221V81.4218L306.922 72.6377L298.15 73.2221Z" fill="#04D361"/>
<path d="M301.57 63.6256C303.458 63.6256 304.989 62.0926 304.989 60.2015C304.989 58.3104 303.458 56.7773 301.57 56.7773C299.681 56.7773 298.15 58.3104 298.15 60.2015C298.15 62.0926 299.681 63.6256 301.57 63.6256Z" fill="#E6E6F0"/>
<path d="M316.36 63.6256C318.248 63.6256 319.779 62.0926 319.779 60.2015C319.779 58.3104 318.248 56.7773 316.36 56.7773C314.471 56.7773 312.94 58.3104 312.94 60.2015C312.94 62.0926 314.471 63.6256 316.36 63.6256Z" fill="#E6E6F0"/>
<path d="M331.15 63.6256C333.039 63.6256 334.57 62.0926 334.57 60.2015C334.57 58.3104 333.039 56.7773 331.15 56.7773C329.262 56.7773 327.731 58.3104 327.731 60.2015C327.731 62.0926 329.262 63.6256 331.15 63.6256Z" fill="#E6E6F0"/>
<path d="M455.737 318.882L453.795 342.54H463.871L469.105 318.882H455.737Z" fill="#FEC9CF"/>
<path d="M464.965 337.591C464.965 337.591 469.342 344.668 466.06 345.928C462.777 347.188 441.166 347.298 435.832 346.503C430.497 345.7 447.731 338.386 451.671 337.235C455.619 336.085 456.886 342.084 464.965 337.591Z" fill="#6842C2"/>
<path d="M508.716 318.882L510.649 342.54H500.573L495.348 318.882H508.716Z" fill="#FEC9CF"/>
<path d="M499.479 337.591C499.479 337.591 495.102 344.668 498.385 345.928C501.668 347.188 523.279 347.298 528.613 346.503C533.947 345.7 516.713 338.386 512.774 337.235C508.835 336.085 507.558 342.084 499.479 337.591Z" fill="#6842C2"/>
<path d="M453.713 189.522L449.145 331.374H470.418L475.005 236.894L493.233 334.085L516.403 330.223C516.403 330.223 495.485 224.202 491.929 189.532H453.713V189.522Z" fill="#D8D8E3"/>
<path d="M474.502 236.902L474.027 243.398L473.303 228.098L474.502 236.902Z" fill="#194248" stroke="#C9C9D4"/>
<path d="M485.09 189.522L509.71 331.017" stroke="#C9C9D4" stroke-miterlimit="10" stroke-linecap="round" stroke-linejoin="round"/>
<path d="M479.966 84.9624C484.507 84.9715 489.33 87.3547 490.862 91.6372C492.048 94.9335 491.154 98.8234 492.814 101.91C494.035 104.192 496.479 105.663 497.583 108C499.862 112.858 495.421 118.629 496.835 123.797C498.139 128.581 504.057 131.321 504.549 136.261C504.868 139.411 502.653 142.433 499.798 143.803C496.953 145.182 493.616 145.173 490.497 144.652C482.847 143.365 475.643 139.164 467.893 139.566C464.701 139.731 461.364 140.662 458.409 139.429C456.303 138.553 454.78 136.699 453.44 134.855C451.899 132.736 450.421 130.326 450.567 127.714C450.777 123.879 454.251 121.194 456.33 117.971C458.455 114.675 459.348 110.557 458.756 106.676C455.938 88.2313 466.297 88.7974 467.619 88.7701C468.832 88.7427 472.862 86.2681 474.458 85.8025C476.263 85.282 478.105 84.9624 479.966 84.9624Z" fill="#D38D00"/>
<path d="M431.3 162.348C426.914 158.851 409.078 147.035 408.904 145.382C408.576 142.278 407.491 139.821 400.844 137.703C400.844 137.703 400.315 138.689 401.236 139.776C402.23 140.954 403.032 141.365 403.032 141.365C403.032 141.365 401.263 142.022 398.655 139.94C396.047 137.858 394.962 136.059 393.85 136.489C393.85 136.489 392.555 135.292 391.935 135.475C391.935 135.475 391.479 135.603 391.561 136.096C390.53 135.922 390.713 138.89 392.509 141.328C395.099 144.825 399.667 147.492 402.348 148.505C404.354 149.263 417.512 168.749 426.33 170.858C428.865 171.442 433.342 163.973 431.3 162.348Z" fill="#FCDDC6"/>
<path d="M445.096 145.063C445.096 145.063 425.382 158.833 423.476 162.257C421.57 165.681 422.993 174.822 431.774 168.95C440.555 163.079 454.415 152.423 454.415 152.423L445.096 145.063Z" fill="#FCDDC6"/>
<path d="M455.227 132.526C455.227 132.526 449.81 133.896 446.199 138.197C443.172 141.804 438.294 147.611 438.294 147.611L453.248 159.244C453.257 159.235 456.905 138.087 455.227 132.526Z" fill="#47248F"/>
<path d="M491.929 189.522H453.704C453.704 189.522 453.859 182.957 451.734 172.758C449.601 162.568 450.667 157.235 452.792 151.912C454.926 146.588 451.123 134.28 455.227 132.526C456.895 131.814 459.795 130.664 462.64 129.559C463.36 129.285 464.072 129.002 464.756 128.737C468.057 127.459 470.838 126.399 470.838 126.399H477.722C477.722 126.399 482.464 127.97 487.333 129.915C487.972 130.171 488.619 130.435 489.257 130.7C489.257 130.709 489.257 130.709 489.257 130.709C491.71 131.741 494.054 132.828 495.649 133.823C500.82 137.019 491.929 189.522 491.929 189.522Z" fill="#6842C2"/>
<path d="M468.521 109.461L469.251 123.633L469.461 127.678C469.552 129.394 470.3 130.928 471.467 132.033C472.625 133.138 474.193 133.805 475.908 133.805C479.537 133.805 482.455 130.81 482.364 127.185L482.181 119.971L481.871 107.982L468.521 109.461Z" fill="#FFDFC8"/>
<path d="M468.521 109.461L469.251 122.811C475.515 123.066 480.093 120.51 482.19 117.113L481.88 107.982L468.521 109.461Z" fill="#DA9F74"/>
<path d="M463.543 98.4854C463.543 98.4854 463.078 103.106 463.725 108.21C464.473 114.118 465.129 120.884 472.908 121.523C482.172 122.281 485.263 111.616 485.263 111.616C485.263 111.616 489.567 110.611 490.096 107.671C490.625 104.722 487.415 103.836 486.294 104.768C486.294 104.768 485.017 92.3311 473.546 92.3311C463.406 92.3311 463.543 98.4854 463.543 98.4854Z" fill="#FFDFC8"/>
<path d="M489.257 130.7C489.257 130.709 489.257 130.709 489.257 130.7C481.415 140.27 472.169 139.822 472.169 139.822C464.874 138.224 462.64 129.559 462.64 129.559C463.361 129.285 464.072 129.002 464.756 128.737C468.057 127.459 470.838 126.399 470.838 126.399H477.722C477.722 126.399 482.464 127.97 487.333 129.915C487.972 130.171 488.619 130.435 489.257 130.7Z" fill="#04D361"/>
<path d="M487.333 129.915C479.336 138.617 472.406 137.704 472.406 137.704C464.956 134.846 464.755 128.737 464.755 128.737C468.056 127.459 470.838 126.399 470.838 126.399H477.722C477.722 126.399 482.464 127.97 487.333 129.915Z" fill="#FCDDC6"/>
<path d="M467.537 89.6465C467.537 89.6465 468.604 98.6406 462.832 101.608C462.832 101.608 459.941 90.7148 467.537 89.6465Z" fill="#D38D00"/>
<path d="M465.786 90.5051C465.786 90.5051 467.838 98.3395 472.926 98.7961C478.014 99.2526 477.111 103.38 481.616 103.855C484.297 104.138 485.491 106.932 485.491 106.932C485.491 106.932 485.883 104.156 488.309 103.17C490.753 102.184 482.573 81.4471 465.786 90.5051Z" fill="#D38D00"/>
<path d="M474.421 109.361C474.421 109.854 474.813 110.246 475.306 110.246C475.798 110.246 476.19 109.854 476.19 109.361C476.19 108.868 475.798 108.475 475.306 108.475C474.822 108.475 474.421 108.877 474.421 109.361Z" fill="#60423D"/>
<path d="M466.416 109.36C466.416 109.853 466.808 110.245 467.3 110.245C467.793 110.245 468.185 109.853 468.185 109.36C468.185 108.867 467.784 108.474 467.3 108.474C466.808 108.474 466.416 108.876 466.416 109.36Z" fill="#60423D"/>
<path d="M478.533 106.274C478.533 106.274 477.22 104.11 474.421 104.886" stroke="#561E15" stroke-miterlimit="10" stroke-linecap="round" stroke-linejoin="round"/>
<path d="M469.606 104.859C469.606 104.859 467.582 103.015 465.604 105.032" stroke="#561E15" stroke-miterlimit="10" stroke-linecap="round" stroke-linejoin="round"/>
<path d="M471.375 107.059C471.375 107.059 470.418 109.506 469.606 111.031C468.795 112.556 471.202 113.232 471.202 113.232" stroke="#DA9F74" stroke-width="0.75" stroke-miterlimit="10" stroke-linecap="round" stroke-linejoin="round"/>
<path d="M476.682 114.967C476.682 114.967 475.123 117.241 472.406 116.592" stroke="#DA9F74" stroke-width="0.75" stroke-miterlimit="10" stroke-linecap="round" stroke-linejoin="round"/>
<path d="M486.266 108.74C486.266 108.74 486.294 105.982 488.345 106.74" stroke="#DA9F74" stroke-width="0.75" stroke-miterlimit="10" stroke-linecap="round" stroke-linejoin="round"/>
<path d="M454.488 180.409H419.473C418.78 180.409 418.215 179.843 418.215 179.149C418.215 178.455 418.78 177.889 419.473 177.889H454.488C455.181 177.889 455.747 178.455 455.747 179.149C455.738 179.852 455.181 180.409 454.488 180.409Z" fill="#04D361"/>
<path d="M416.838 148.951H448.379C448.96 148.951 449.467 149.32 449.648 149.857L449.679 149.966L449.68 149.968L456.474 177.398H422.171L415.535 150.623V150.621L415.505 150.462C415.404 149.677 416.023 148.951 416.838 148.951Z" fill="#04D361" stroke="#04D361"/>
<path d="M454.689 177.898H419.354L412.625 150.743C412.333 149.583 413.218 148.451 414.412 148.451H445.953C446.801 148.451 447.54 149.026 447.74 149.848L454.689 177.898Z" fill="white"/>
<path d="M481.588 180.409H455.09C454.442 180.409 453.914 179.88 453.914 179.232V179.076C453.914 178.428 454.442 177.898 455.09 177.898H481.588C482.236 177.898 482.765 178.428 482.765 179.076V179.232C482.774 179.889 482.245 180.409 481.588 180.409Z" fill="#04D361"/>
<path d="M431.589 159.783C432.474 159.442 433.719 160.007 434.36 161.353L434.48 161.633C435.072 163.169 434.518 164.578 433.57 164.95C432.627 165.311 431.274 164.638 430.681 163.1C430.089 161.561 430.645 160.147 431.589 159.783Z" fill="#04D361" stroke="#04D361"/>
<path d="M493.862 177.898L491.564 148.076L495.978 160.631L493.862 177.898Z" fill="#47248F"/>
<path d="M494.163 151.108C494.163 151.108 499.616 180.455 500.965 185.258C501.841 188.363 508.206 190.481 510.203 186.372C510.64 185.468 510.54 183.962 510.494 182.428C510.184 172.94 503.555 148.798 503.555 148.798L494.163 151.108Z" fill="#FCDDC6"/>
<path d="M495.658 133.823C495.658 133.823 498.914 135.494 501.649 140.214C504.385 144.935 508.16 153.263 507.923 155.281C506.5 159.161 495.266 163.179 495.266 163.179C495.266 163.179 487.762 138.48 495.658 133.823Z" fill="#6842C2"/>
<path d="M501.959 179.588C501.959 179.588 484.643 179.204 481.36 177.25C476.911 174.593 475.88 175.744 473.3 175.105C469.16 174.073 469.616 174.913 469.616 174.913C469.616 174.913 469.807 177.314 473.008 177.616C474.622 177.771 477.038 178.456 476.528 178.848C476.528 178.848 463.689 180.191 461.108 180.419C458.528 180.647 459.786 182.638 461.756 183.094C461.756 183.094 462.932 184.583 464.838 184.126C464.838 184.126 464.418 184.966 469.36 184.966C474.303 184.966 479.263 182.336 481.771 183.478C484.278 184.619 497.82 189.869 506.409 188.655C510.513 188.071 510.54 186.098 510.54 184.016C510.54 180.41 507.877 179.953 501.959 179.588Z" fill="#FCDDC6"/>
<path d="M142.705 318.882L136.988 342.54H126.912L129.338 318.882H142.705Z" fill="#BC8567"/>
<path d="M125.818 337.591C125.818 337.591 121.441 344.668 124.724 345.928C128.007 347.188 149.618 347.298 154.952 346.503C160.286 345.7 143.052 338.386 139.113 337.235C135.174 336.085 133.897 342.084 125.818 337.591Z" fill="#6842C2"/>
<path d="M110.973 318.882L107.517 342.54H97.4406L97.6047 318.882H110.973Z" fill="#BC8567"/>
<path d="M96.347 337.591C96.347 337.591 91.9701 344.668 95.2528 345.928C98.5354 347.188 120.146 347.298 125.481 346.503C130.815 345.7 113.581 338.386 109.642 337.235C105.703 336.085 104.426 342.084 96.347 337.591Z" fill="#6842C2"/>
<path d="M94.04 204.461L94.7877 330.707H110.782L122.08 237.954L134.955 275.592L125.317 330.716H142.715C142.715 330.716 158.007 283.079 157.387 273.729C156.767 264.37 139.113 200.617 139.113 200.617L94.04 204.461Z" fill="#D8D8E3"/>
<path d="M124.944 244.817L122.578 237.896L123.681 226.693L124.944 244.817Z" fill="#C9C9D4" stroke="#C9C9D4"/>
<path d="M103.068 202.936L102.146 330.716" stroke="#C9C9D4" stroke-miterlimit="10"/>
<path d="M152.043 146.643C152.043 146.643 162.374 166.21 162.602 172.219C162.83 178.227 156.219 176.885 152.8 171.47C149.381 166.046 143.909 150.669 143.909 150.669L152.043 146.643Z" fill="#BC8567"/>
<path d="M153.976 148.277C153.976 148.277 151.013 153.555 143.909 156.778C142.441 157.445 141.201 155.682 140.28 153.591C139.213 151.153 138.593 148.277 138.593 148.277C138.593 148.277 130.45 123.048 137.627 123.952C137.627 123.952 143.736 124.381 148.222 133.238C149.399 135.548 151.232 140.205 152.764 144.625C153.201 145.885 153.612 147.117 153.976 148.277Z" fill="#47248F"/>
<path d="M153.976 148.277C153.976 148.277 151.013 153.555 143.909 156.778C142.441 157.445 141.201 155.682 140.28 153.591C143.061 152.34 148.323 149.528 152.764 144.625C153.201 145.885 153.612 147.117 153.976 148.277Z" fill="#04D361"/>
<path d="M139.478 201.995C134.964 207.127 105.247 206.369 94.0308 204.46C92.0612 204.123 90.1189 203.365 93.2283 196.498C94.3955 193.932 93.894 187.331 93.6934 178.254C93.3013 160.312 87.9852 130.544 94.5414 127.129C98.4715 125.075 106.815 122.372 112.879 120.528C113.244 120.427 113.599 120.318 113.946 120.208C117.484 119.149 120.01 118.446 120.01 118.446C120.01 118.446 122.937 118.875 128.891 120.637C129.21 120.729 129.557 120.838 129.903 120.939C131.453 121.413 133.177 121.961 135.101 122.619C138.83 123.888 141.566 124.664 142.232 125.906C144.01 129.166 143.326 134.946 143.435 143.273C143.581 153.728 143.472 197.466 139.478 201.995Z" fill="#6842C2"/>
<path d="M92.2983 157.938L98.7086 142.287L94.0399 182.546L92.2983 157.938Z" fill="#47248F"/>
<path d="M129.903 120.948C129.766 123.158 128.773 125.103 127.277 126.527C125.745 127.988 123.675 128.874 121.423 128.874C116.763 128.874 112.988 125.139 112.897 120.519C113.262 120.418 113.617 120.309 113.964 120.199C117.502 119.14 120.028 118.437 120.028 118.437C120.028 118.437 122.955 118.866 128.909 120.628C129.219 120.747 129.557 120.848 129.903 120.948Z" fill="#04D361"/>
<path d="M133.789 86.5001C133.789 86.5001 130.413 83.2689 125.304 82.5001C117.83 81.3756 107.991 83.8105 106.031 95.2348C104.481 101.818 112.496 112.639 115.523 112.009C115.523 112.009 142.774 94.7348 133.789 86.5001Z" fill="#43302D"/>
<path d="M128.882 102.33L128.153 116.501L127.943 120.546C127.861 122.263 127.104 123.797 125.937 124.902C124.779 126.007 123.21 126.673 121.496 126.673C117.867 126.673 114.949 123.678 115.04 120.053L115.222 112.84L115.532 100.851L128.882 102.33Z" fill="#BC8567"/>
<path d="M128.882 105.152L128.153 118.501C121.888 118.757 117.311 116.2 115.213 112.803L115.523 103.672L128.882 105.152Z" fill="#765441"/>
<path d="M133.852 94.1758C133.852 94.1758 134.317 98.7961 133.669 103.9C132.922 109.808 133.186 116.748 124.487 117.213C115.204 117.707 112.131 107.306 112.131 107.306C112.131 107.306 107.198 106.384 106.861 103.051C106.523 99.7184 109.97 99.5266 111.092 100.458C111.092 100.458 112.368 88.0215 123.839 88.0215C133.988 88.0306 133.852 94.1758 133.852 94.1758Z" fill="#BC8567"/>
<path d="M123.237 103.106C123.237 103.617 122.827 104.028 122.317 104.028C121.806 104.028 121.396 103.617 121.396 103.106C121.396 102.594 121.806 102.184 122.317 102.184C122.818 102.184 123.237 102.594 123.237 103.106Z" fill="#60423D"/>
<path d="M132.11 102.631C132.11 103.142 131.699 103.553 131.189 103.553C130.678 103.553 130.268 103.142 130.268 102.631C130.268 102.12 130.678 101.709 131.189 101.709C131.699 101.709 132.11 102.12 132.11 102.631Z" fill="#60423D"/>
<path d="M118.687 100.466C118.687 100.466 120.046 98.2206 122.954 99.0331" stroke="#43302D" stroke-miterlimit="10" stroke-linecap="round" stroke-linejoin="round"/>
<path d="M127.952 98.9967C127.952 98.9967 130.049 97.0796 132.109 99.1793" stroke="#43302D" stroke-miterlimit="10" stroke-linecap="round" stroke-linejoin="round"/>
<path d="M126.119 101.28C126.119 101.28 127.113 103.818 127.961 105.407C128.809 106.987 126.301 107.69 126.301 107.69" stroke="#765441" stroke-width="0.75" stroke-miterlimit="10" stroke-linecap="round" stroke-linejoin="round"/>
<path d="M122.782 110.529C122.782 110.529 124.833 112.52 127.468 111.305" stroke="#765441" stroke-width="0.75" stroke-miterlimit="10" stroke-linecap="round" stroke-linejoin="round"/>
<path d="M110.945 104.128C110.945 104.128 110.918 101.27 108.785 102.046" stroke="#765441" stroke-width="0.75" stroke-miterlimit="10" stroke-linecap="round" stroke-linejoin="round"/>
<path d="M113.763 90.8335C113.763 90.8335 118.979 96.1569 116.125 98.1931C112.952 100.458 112.45 103.672 112.45 103.672C112.45 103.672 112.514 102.54 111.101 100.467C109.687 98.394 106.605 91.0344 113.763 90.8335Z" fill="#43302D"/>
<path d="M85.2041 147.693C85.2041 147.693 74.8727 167.261 74.6448 173.269C74.4168 179.277 81.0278 177.935 84.4472 172.52C87.8667 167.096 93.3379 151.72 93.3379 151.72L85.2041 147.693Z" fill="#BC8567"/>
<path d="M158.873 165.599C158.873 165.599 143.472 154.185 142.596 153.537C141.11 152.423 138.94 150.806 138.156 150.259C136.915 149.391 129.666 148.131 128.654 148.295C127.651 148.46 124.87 148.935 124.058 149.236C123.247 149.537 124.268 150.578 125.07 151.071C125.873 151.564 129.429 153.409 132.447 153.966C134.125 154.276 135.566 155.125 136.742 155.975C137.681 156.65 153.931 173.241 154.542 173.643L158.873 165.599Z" fill="#BC8567"/>
<path d="M139.806 151.592C139.806 151.592 134.007 146.159 133.14 146.241C132.283 146.323 132.894 147.547 135.174 149.4C135.949 150.031 136.779 151.026 137.472 151.355C138.83 151.994 139.806 151.592 139.806 151.592Z" fill="#BC8567"/>
<path d="M139.884 149.211C140.765 149.107 141.477 149.925 141.256 150.781L136.204 170.23C136.073 170.735 135.648 171.106 135.136 171.165L135.133 171.166L113.987 173.695C113.106 173.799 112.394 172.981 112.615 172.125L117.667 152.676C117.798 152.171 118.223 151.8 118.735 151.742L118.738 151.741L139.884 149.211Z" fill="#04D361" stroke="#04D361"/>
<path d="M136.132 172.31L114.986 174.839C113.755 174.986 112.761 173.844 113.071 172.648L118.123 153.199C118.305 152.496 118.898 151.975 119.618 151.893L140.764 149.364C141.995 149.218 142.989 150.359 142.679 151.555L137.627 171.004C137.445 171.698 136.852 172.219 136.132 172.31Z" fill="white"/>
<path d="M120.787 153.212C120.808 153.21 120.826 153.216 120.842 153.233C120.858 153.251 120.862 153.27 120.857 153.291V153.292L119.863 157.107L119.862 157.112C119.861 157.116 119.857 157.126 119.845 157.137C119.833 157.148 119.815 157.156 119.795 157.159L118.793 157.275V157.276C118.773 157.279 118.754 157.272 118.739 157.254C118.723 157.236 118.719 157.217 118.724 157.196L118.725 157.195L119.718 153.38L119.721 153.37C119.726 153.351 119.742 153.333 119.768 153.33L119.767 153.329L120.787 153.212Z" fill="#04D361" stroke="#04D361"/>
<path d="M78.593 167.48C85.049 167.736 105.228 167.316 107.9 166.402C109.049 166.01 111.876 165.416 112.596 164.293C113.326 163.152 113.946 161.417 114.703 161.289C115.286 161.189 115.149 163.07 114.976 163.754C114.648 164.987 114.429 165.626 113.991 166.192C113.845 166.384 118.815 167.096 121.934 166.302C124.076 165.754 123.675 167.471 122.235 168.192C122.235 168.192 122.809 169.69 121.295 170.183C121.295 170.183 121.56 171.845 120.101 171.972C119.946 172.383 119.49 173.123 118.231 173.479C116.408 173.99 113.244 173.981 110.836 174.082C109.414 174.136 81.9213 178.437 77.0611 177.214C75.0368 176.702 76.4957 167.398 78.593 167.48Z" fill="#BC8567"/>
<path d="M97.122 150.323C97.122 150.323 96.6478 152.121 95.9457 153.975C95.1615 156.02 94.0946 158.121 93.046 157.929C93.046 157.929 78.7845 153.418 79.2587 151.957C79.6143 150.87 80.2253 149.455 80.9821 147.885C83.3438 142.972 87.0915 136.562 88.6052 134.078C93.7663 125.596 95.8819 126.673 95.8819 126.673C103.113 126.326 97.122 150.323 97.122 150.323Z" fill="#6842C2"/>
<path d="M95.9457 153.975C95.1615 156.021 94.0946 158.121 93.046 157.929C93.046 157.929 78.7845 153.418 79.2587 151.957C79.6143 150.871 80.2253 149.455 80.9821 147.885C83.6083 149.127 90.6934 152.386 95.9457 153.975Z" fill="#04D361"/>
<path d="M100.469 193.96C100.469 193.96 124.177 190.152 136.943 182.546C136.943 182.546 122.663 196.854 100.469 193.96Z" fill="#47248F"/>
<path d="M396.148 284.439H334.497C331.46 284.439 329.008 281.974 329.008 278.942V249.111C329.008 246.071 331.47 243.614 334.497 243.614H396.148C399.184 243.614 401.637 246.08 401.637 249.111V278.933C401.646 281.974 399.184 284.439 396.148 284.439Z" fill="#6842C2"/>
<path d="M335.545 273.893C341.29 273.893 341.29 267.044 347.035 267.044C352.779 267.044 352.779 257.913 358.524 257.913C364.269 257.913 364.269 261.411 370.013 261.411C375.758 261.411 375.758 252.964 381.503 252.964C387.247 252.964 387.247 266.214 392.992 266.214" stroke="white" stroke-width="2" stroke-miterlimit="10" stroke-linecap="round" stroke-linejoin="round"/>
<path d="M337.223 273.892C337.223 272.97 336.475 272.222 335.554 272.222C334.633 272.222 333.886 272.97 333.886 273.892C333.886 274.814 334.633 275.563 335.554 275.563C336.475 275.563 337.223 274.814 337.223 273.892Z" fill="white"/>
<path d="M394.67 266.222C394.67 265.3 393.922 264.552 393.001 264.552C392.08 264.552 391.333 265.3 391.333 266.222C391.333 267.145 392.08 267.893 393.001 267.893C393.922 267.893 394.67 267.145 394.67 266.222Z" fill="white"/>
<path d="M39.6203 69.0468H101.198C105.32 69.0468 108.666 65.6957 108.666 61.5685V42.7493C108.666 38.6221 105.32 35.271 101.198 35.271H39.6203C35.4987 35.271 32.1522 38.6221 32.1522 42.7493V61.5685C32.1522 65.7048 35.4987 69.0468 39.6203 69.0468Z" fill="#6842C2"/>
<path d="M99.4928 67.1112V75.3109L90.7116 66.5269L99.4928 67.1112Z" fill="#6842C2"/>
<path d="M39.2281 43.562H56.2981" stroke="white" stroke-width="2.2165" stroke-miterlimit="10" stroke-linecap="round" stroke-linejoin="round"/>
<path d="M62.3802 43.562H101.59" stroke="white" stroke-width="2.2165" stroke-miterlimit="10" stroke-linecap="round" stroke-linejoin="round"/>
<path d="M39.2281 52.1636H71.052" stroke="white" stroke-width="2.2165" stroke-miterlimit="10" stroke-linecap="round" stroke-linejoin="round"/>
<path d="M75.9214 52.1636H85.3409" stroke="white" stroke-width="2.2165" stroke-miterlimit="10" stroke-linecap="round" stroke-linejoin="round"/>
<path d="M90.3925 52.1636H101.59" stroke="white" stroke-width="2.2165" stroke-miterlimit="10" stroke-linecap="round" stroke-linejoin="round"/>
<path d="M39.2281 60.7559H46.4318" stroke="white" stroke-width="2.2165" stroke-miterlimit="10" stroke-linecap="round" stroke-linejoin="round"/>
<path d="M50.8452 60.7559H76.8331" stroke="white" stroke-width="2.2165" stroke-miterlimit="10" stroke-linecap="round" stroke-linejoin="round"/>
<path d="M422.892 38.5515H407.09C404.153 38.5515 401.773 36.1683 401.773 33.2281V17.404C401.773 14.4638 404.153 12.0806 407.09 12.0806H422.892C425.828 12.0806 428.208 14.4638 428.208 17.404V33.2281C428.208 36.1683 425.828 38.5515 422.892 38.5515Z" fill="#6842C2"/>
<path d="M423.986 23.9501L423.594 22.2152C423.521 21.8774 423.174 21.6674 422.837 21.7404L421.815 21.9778C421.551 22.0417 421.287 21.9139 421.141 21.6856C420.739 21.0556 420.247 20.4895 419.682 20.0146C419.454 19.8229 419.381 19.5124 419.508 19.2476L420.019 18.1976C420.174 17.8871 420.037 17.5036 419.727 17.3575L418.122 16.5814C417.812 16.4261 417.429 16.5631 417.283 16.8736L416.736 18.0149C416.618 18.2706 416.335 18.3984 416.062 18.3619C415.724 18.3163 415.369 18.2889 415.022 18.2889C414.666 18.2889 414.32 18.3163 413.983 18.3619C413.7 18.3984 413.426 18.2706 413.308 18.0149L412.761 16.8736C412.606 16.5631 412.232 16.4261 411.922 16.5814L410.317 17.3575C410.007 17.5127 409.87 17.8871 410.025 18.1976L410.536 19.2476C410.663 19.5124 410.581 19.8229 410.363 20.0146C409.797 20.4986 409.296 21.0556 408.904 21.6856C408.758 21.9139 408.493 22.0417 408.229 21.9778L407.207 21.7404C406.87 21.6674 406.533 21.8774 406.451 22.2152L406.059 23.9501C405.986 24.288 406.195 24.6258 406.533 24.708L407.828 25.0002C407.818 25.1828 407.8 25.3563 407.8 25.5389C407.8 26.4064 407.955 27.2464 408.238 28.0135C408.329 28.2691 408.265 28.5613 408.046 28.7348L407.545 29.1366C407.271 29.3557 407.226 29.7484 407.445 30.0223L408.502 31.4193C408.721 31.6933 409.113 31.7389 409.387 31.5198L409.733 31.2367C409.97 31.0541 410.299 31.0632 410.527 31.2459C411.256 31.812 412.086 32.2503 412.998 32.5151C413.271 32.5973 413.472 32.8347 413.472 33.1269V33.4921C413.472 33.8391 413.755 34.1221 414.101 34.1221H415.879C416.226 34.1221 416.508 33.8391 416.508 33.4921V33.1269C416.508 32.8347 416.709 32.5973 416.983 32.5151C417.894 32.2503 418.724 31.8211 419.454 31.2459C419.691 31.0632 420.019 31.045 420.247 31.2367L420.594 31.5198C420.867 31.7389 421.259 31.6933 421.478 31.4193L422.591 30.0314C422.809 29.7575 422.764 29.3649 422.49 29.1457L421.989 28.7439C421.77 28.5705 421.706 28.2783 421.797 28.0226C422.08 27.2464 422.235 26.4155 422.235 25.5481C422.235 25.3654 422.217 25.192 422.208 25.0093L423.502 24.7171C423.849 24.6258 424.059 24.288 423.986 23.9501ZM414.995 30.0497C412.505 30.0497 410.49 28.0317 410.49 25.5389C410.49 23.0462 412.505 21.0282 414.995 21.0282C417.484 21.0282 419.499 23.0462 419.499 25.5389C419.499 28.0317 417.484 30.0497 414.995 30.0497Z" fill="white"/>
<path d="M563.142 143.35C564.761 133.369 557.993 123.967 548.026 122.348C538.059 120.73 528.666 127.509 527.047 137.489C525.428 147.47 532.196 156.872 542.163 158.491C552.13 160.109 561.523 153.33 563.142 143.35Z" fill="#6842C2"/>
<path d="M555.102 142.823C556.407 137.292 552.987 131.751 547.463 130.446C541.94 129.141 536.404 132.567 535.098 138.097C533.793 143.628 537.212 149.17 542.736 150.475C548.26 151.779 553.796 148.354 555.102 142.823Z" fill="#6842C2" stroke="white" stroke-width="2" stroke-miterlimit="10" stroke-linecap="round" stroke-linejoin="round"/>
<path d="M545.081 133.695V140.424L541.534 143.976" fill="#6842C2"/>
<path d="M545.081 133.695V140.424L541.534 143.976" stroke="white" stroke-width="2" stroke-miterlimit="10" stroke-linecap="round" stroke-linejoin="round"/>
<path d="M545.081 130.133V131.119" stroke="white" stroke-width="2" stroke-miterlimit="10" stroke-linecap="round" stroke-linejoin="round"/>
<path d="M545.081 149.738V150.715" stroke="white" stroke-width="2" stroke-miterlimit="10" stroke-linecap="round" stroke-linejoin="round"/>
<path d="M555.358 140.424H554.373" stroke="white" stroke-width="2" stroke-miterlimit="10" stroke-linecap="round" stroke-linejoin="round"/>
<path d="M535.79 140.424H534.804" stroke="white" stroke-width="2" stroke-miterlimit="10" stroke-linecap="round" stroke-linejoin="round"/>
</svg>
